PathFileType	4	(X/Y/Z)	Run_500 02
DataRate	CameraRate	NumFrames	NumMarkers	Units	OrigDataRate	OrigDataStartFrame	OrigNumFrames
100	100	4	42	mm	100	311	128
Frame#	Time	RASI			RPSI			RTH1			RTH2			RTH3			LTH1			LTH2			LTH3			RTB1			RTB2			RTB3			LTB1			LTB2			LTB3			RCAL			RTOE			RMT5			LCAL			LTOE			LMT5			LACR			RACR			CLAV			C7			RUA1			RUA2			RUA3			RLEL			LUA1			LUA2			LUA3			LLEL			LMEL			RFAsuperior			RFAradius			RFAulna			LFAsuperior			LFAradius			LPSI			RMEL			LFAulna			LASI		
		X1	Y1	Z1	X2	Y2	Z2	X3	Y3	Z3	X4	Y4	Z4	X5	Y5	Z5	X6	Y6	Z6	X7	Y7	Z7	X8	Y8	Z8	X9	Y9	Z9	X10	Y10	Z10	X11	Y11	Z11	X12	Y12	Z12	X13	Y13	Z13	X14	Y14	Z14	X15	Y15	Z15	X16	Y16	Z16	X17	Y17	Z17	X18	Y18	Z18	X19	Y19	Z19	X20	Y20	Z20	X21	Y21	Z21	X22	Y22	Z22	X23	Y23	Z23	X24	Y24	Z24	X25	Y25	Z25	X26	Y26	Z26	X27	Y27	Z27	X28	Y28	Z28	X29	Y29	Z29	X30	Y30	Z30	X31	Y31	Z31	X32	Y32	Z32	X33	Y33	Z33	X34	Y34	Z34	X35	Y35	Z35	X36	Y36	Z36	X37	Y37	Z37	X38	Y38	Z38	X39	Y39	Z39	X40	Y40	Z40	X41	Y41	Z41	X42	Y42	Z42	

311	  3.110000	996.688994	1031.123359	-220.289895	847.936046	1077.125693	-307.616400	926.021981	912.934078	-163.208736	927.477782	759.093449	-191.294433	1027.034250	630.881919	-191.429640	977.774012	873.552309	-505.207315	903.774645	722.933118	-467.828387	960.386418	590.498132	-469.109907	1120.933234	392.079930	-269.257871	1033.485539	349.203830	-208.717991	1068.728001	210.713770	-301.924361	870.901349	438.264103	-412.159915	776.045096	541.176268	-459.627963	659.242134	495.992909	-416.147154	927.105591	 98.551435	-314.318111	1170.206570	 73.414424	-337.605655	1120.275111	 48.955831	-241.751374	555.636260	638.920480	-384.741528	478.076057	415.416731	-407.006807	463.600629	479.754498	-497.792186	988.943094	1521.343134	-485.751755	991.307105	1487.917563	-166.158057	1051.931735	1461.859254	-293.186288	926.563677	1528.169166	-332.842286	856.819392	1427.794755	-114.155381	882.686966	1361.601927	-73.639130	789.458733	1318.053924	-40.847094	738.704199	1269.875663	-19.068838	889.157736	1435.781157	-548.188043	917.560290	1366.056323	-587.675005	843.636794	1313.497927	-625.807301	824.571680	1250.574170	-653.620021	794.156628	1224.024540	-572.574151	818.704608	1195.284366	-14.579148	973.201907	1140.188847	-92.978063	935.868228	1089.923501	-64.498596	887.565250	1193.264862	-640.536378	1038.669863	1179.928754	-523.343417	866.135820	1075.130707	-419.874378	740.757034	1241.154264	-105.120793	1033.428113	1118.439446	-562.399513	1034.591627	1007.775465	-463.064757	
312	  3.120000	991.798448	1024.023407	-216.909178	842.898238	1071.952589	-307.913514	919.870368	907.855219	-162.348945	920.800798	753.924773	-193.092170	1019.028765	623.766296	-195.751146	976.258621	867.543333	-504.164636	914.982292	712.969856	-470.847627	981.094417	585.435649	-471.263152	1100.967667	384.940429	-276.657552	1011.311257	348.947549	-213.382300	1032.255795	207.950649	-307.026575	900.913297	435.628582	-414.009201	805.875013	537.609966	-463.728779	689.816948	493.318581	-417.799970	879.831560	100.568096	-317.374408	1122.962350	 73.308655	-339.502263	1072.305672	 49.557938	-244.237221	582.907297	636.724760	-387.802384	512.204157	410.618743	-407.327917	497.112472	473.027605	-499.455998	985.537727	1514.809551	-485.834164	993.942187	1479.015760	-164.602746	1052.733922	1453.939573	-293.568252	926.617936	1521.831905	-329.944251	864.829297	1411.929497	-106.592340	892.638641	1345.444978	-70.542764	802.606612	1298.007227	-34.466134	753.533326	1250.129727	-10.694970	883.508538	1429.475717	-545.302906	910.106286	1359.797904	-586.829083	835.073187	1307.972282	-623.122967	814.435924	1246.065540	-651.626949	785.586430	1219.785544	-570.594516	834.591982	1175.947223	 -9.272701	987.723635	1125.113152	-94.028561	952.697069	1074.247011	-64.012722	873.885668	1183.164914	-641.752136	1025.959344	1154.348128	-527.266148	859.601317	1070.031775	-420.076432	753.365384	1221.949132	-96.668791	1016.384440	1096.310683	-570.058300	1028.129970	999.748321	-460.525344	
313	  3.130000	987.041654	1018.407818	-212.631103	838.191253	1067.949757	-307.835148	914.049618	903.796555	-161.588018	912.986174	749.507852	-196.281774	1007.930692	616.717710	-200.496298	974.907620	864.456024	-504.546247	926.693020	707.151600	-473.413902	1002.803850	584.870864	-473.205939	1077.348710	376.765180	-282.100425	987.482974	346.186305	-216.309471	994.319916	204.208753	-308.972840	932.976735	435.702259	-415.178215	835.376864	534.233220	-467.588222	720.987237	488.800799	-418.849561	834.400101	102.439714	-317.304766	1077.056123	 72.465518	-340.071085	1026.077363	 48.659910	-245.308762	607.849795	630.285215	-391.413758	548.328579	400.731143	-407.557499	531.435785	460.679484	-501.065890	982.720298	1509.496151	-486.078495	995.809060	1471.695971	-163.507726	1053.003190	1447.644276	-294.161747	927.034429	1517.644442	-327.912257	874.380330	1396.701863	-100.154261	903.152674	1330.487892	-68.333777	816.968898	1278.519178	-28.605608	770.397187	1230.428532	 -2.594781	878.583047	1424.855599	-542.949180	903.050742	1354.869750	-585.735995	826.526853	1304.029631	-619.814882	804.238958	1243.066366	-648.875566	776.939266	1216.888429	-567.778958	852.801319	1156.953139	 -4.697304	1004.073823	1110.512583	-95.951483	971.305508	1059.263768	-64.365547	859.816866	1175.273122	-642.297996	1010.887681	1129.769037	-531.049281	854.339622	1066.282175	-419.709495	767.895121	1202.535060	-88.474552	997.436992	1076.355559	-577.923808	1022.321061	994.614459	-459.832396	
314	  3.140000	983.424835	1014.247659	-210.006239	834.496596	1065.253040	-307.123312	909.654598	900.393508	-161.724046	903.748991	746.079651	-198.938504	993.904355	609.863110	-203.944268	973.301489	864.298613	-506.563821	938.582549	705.466243	-475.495593	1024.971780	589.083935	-474.915309	1049.805214	367.348106	-286.421213	961.018684	340.750827	-218.554511	954.464139	199.317498	-309.803994	966.257243	438.738893	-415.524807	864.106763	531.199407	-470.664458	752.105323	482.869970	-419.406286	789.783616	103.579236	-316.211396	1031.922122	 71.303547	-340.046011	980.892893	 47.853513	-245.124015	630.047107	619.710282	-395.136265	586.825056	386.439822	-407.780254	566.968510	443.373578	-502.474643	980.352503	1505.261601	-486.247183	997.215124	1466.070835	-162.946453	1052.786199	1443.060898	-294.986263	927.127177	1514.860443	-326.974559	883.798037	1383.398573	-96.072783	913.880215	1318.250411	-67.061034	832.240861	1261.306552	-23.487232	789.408414	1211.856448	  4.697683	874.184045	1422.139211	-541.192769	896.400447	1351.372884	-584.342429	817.939204	1302.282756	-616.158673	793.788577	1242.287171	-645.813959	767.586112	1216.045024	-564.347965	873.970518	1140.427024	 -1.483774	1022.296670	1097.984840	-99.131962	991.860078	1046.401967	-65.759386	845.538589	1170.596848	-642.256672	993.741027	1108.243733	-534.926941	850.412394	1063.555884	-418.480637	784.214069	1183.818928	-80.974238	976.754568	1059.926581	-585.622803	1017.410124	991.627615	-460.103134	
